# xmcd CD database file
#
# Track frame offsets:
#	150
#	9975
#	21050
#	29437
#	39950
#	50100
#	61937
#	70175
#	78712
#	86862
#	96812
#
# Disc length: 1402 seconds
#
# Revision: 0
# Processed by: cddbd v1.5.1PL0 Copyright (c) Steve Scherf et al.
# Submitted via: CDex 1.40Release
#
DISCID=8805780b
DTITLE=Johnny Cash - Original Golden Hits - Volume III
DYEAR=1991
DGENRE=Country
TTITLE0=Rock Island Line
TTITLE1=Oh Lonesome Me
TTITLE2=Country Boy
TTITLE3=You Win Again
TTITLE4=Straight A's In Love
TTITLE5=Doin' My Time
TTITLE6=The Wreck Of The Old 97
TTITLE7=I Forgot To Remember To Forget
TTITLE8=Sugartime
TTITLE9=Story Of A Broken Heart
TTITLE10=Katy Too
EXTD=YEAR: 1991 ID3G: 2
EXTT0=
EXTT1=
EXTT2=
EXTT3=
EXTT4=
EXTT5=
EXTT6=
EXTT7=
EXTT8=
EXTT9=
EXTT10=
PLAYORDER=
